<svg width="89" height="88" xmlns="http://www.w3.org/2000/svg" xmlns:xlink="http://www.w3.org/1999/xlink" overflow="hidden"><defs><filter id="fx0" x="-10%" y="-10%" width="120%" height="120%" filterUnits="userSpaceOnUse" primitiveUnits="userSpaceOnUse"><feComponentTransfer color-interpolation-filters="sRGB"><feFuncR type="discrete" tableValues="0 0"/><feFuncG type="discrete" tableValues="0 0"/><feFuncB type="discrete" tableValues="0 0"/><feFuncA type="linear" slope="0.4" intercept="0"/></feComponentTransfer><feGaussianBlur stdDeviation="1.77778 1.77778"/></filter><clipPath id="clip1"><rect x="450" y="136" width="89" height="88"/></clipPath><clipPath id="clip2"><rect x="3" y="5" width="84" height="82"/></clipPath></defs><g clip-path="url(#clip1)" transform="translate(-450 -136)"><g clip-path="url(#clip2)" filter="url(#fx0)" transform="translate(449 134)"><g><g><g><g><path d="M45.5 12.1458C26.8949 12.1118 11.7849 27.1665 11.7509 45.7715 11.7168 64.3766 26.7716 79.4867 45.3766 79.5208 50.2495 79.5297 55.0663 78.4813 59.4948 76.448L35.875 41.0208 35.875 62.6771C35.875 64.0061 34.7977 65.0833 33.4688 65.0833L28.6562 65.0833C27.3273 65.0833 26.25 64.0061 26.25 62.6771L26.25 28.9896C26.25 27.6606 27.3273 26.5833 28.6562 26.5833L34.5131 26.5833C35.3581 26.584 36.1409 27.0279 36.5752 27.7528L64.2254 73.8325C79.689 63.487 83.8378 42.5647 73.4924 27.1011 67.2414 17.7577 56.7415 12.1481 45.5 12.1458ZM64.75 50.6458 55.125 50.6458 55.125 28.9896C55.125 27.6606 56.2023 26.5833 57.5312 26.5833L62.3438 26.5833C63.6727 26.5833 64.75 27.6606 64.75 28.9896Z" fill="#455A64"/></g></g></g></g></g><g><g><g><path d="M494.5 140.812C475.895 140.778 460.785 155.833 460.751 174.438 460.717 193.043 475.772 208.153 494.377 208.188 499.249 208.196 504.066 207.148 508.495 205.115L484.875 169.688 484.875 191.344C484.875 192.673 483.798 193.75 482.469 193.75L477.656 193.75C476.327 193.75 475.25 192.673 475.25 191.344L475.25 157.656C475.25 156.327 476.327 155.25 477.656 155.25L483.513 155.25C484.358 155.251 485.141 155.695 485.575 156.419L513.225 202.499C528.689 192.154 532.838 171.231 522.492 155.768 516.241 146.424 505.742 140.815 494.5 140.812ZM513.75 179.312 504.125 179.312 504.125 157.656C504.125 156.327 505.202 155.25 506.531 155.25L511.344 155.25C512.673 155.25 513.75 156.327 513.75 157.656Z" fill="#455A64"/></g></g></g></g></svg>